<?xml version="1.0" encoding="utf-8"?>
<!-- Generator: Adobe Illustrator 19.0.1, SVG Export Plug-In . SVG Version: 6.00 Build 0)  -->
<svg version="1.1" id="Layer_1"
	 xmlns="http://www.w3.org/2000/svg" xmlns:xlink="http://www.w3.org/1999/xlink" x="0px" y="0px" viewBox="0 0 130.2 119.1"
	 enable-background="new 0 0 130.2 119.1" xml:space="preserve">
<metadata>
	<sfw>
		<slices></slices>
		<sliceSourceBounds  height="118.5" width="130.2" bottomLeftOrigin="true" x="450.8" y="-1057"></sliceSourceBounds>
	</sfw>
</metadata>
<g>
	<defs>
		<path id="SVGID_1_" d="M52.7,73.1c1-7.6,0.3-13.5-2.8-20.9c-0.4-1-1.6-1.5-2.6-1.1c-1,0.4-1.5,1.6-1.1,2.6
			c2.8,6.7,3.4,11.9,2.5,18.8c-0.1,1.1,0.6,2.1,1.7,2.2C51.6,75,52.6,74.2,52.7,73.1z"/>
	</defs>
	<clipPath id="SVGID_2_">
		<use xlink:href="#SVGID_1_"  overflow="visible"/>
	</clipPath>
	<rect x="41.1" y="46" clip-path="url(#SVGID_2_)" fill="#E36936" width="17" height="33.9"/>
</g>
<g>
	<defs>
		<path id="SVGID_3_" d="M61.5,77.3c2.3-4.2,2.3-8.1,1.1-17.1c0-0.1,0-0.1,0-0.2c-1.2-8.7-1-12.3,1.2-15.6c0.6-0.9,0.4-2.2-0.5-2.8
			c-0.9-0.6-2.2-0.4-2.8,0.5c-3.1,4.4-3.2,8.7-1.9,18.4c0,0.1,0,0.1,0,0.2c1.1,8.2,1.1,11.6-0.6,14.7c-0.5,1-0.2,2.2,0.8,2.7
			C59.7,78.7,61,78.3,61.5,77.3z"/>
	</defs>
	<clipPath id="SVGID_4_">
		<use xlink:href="#SVGID_3_"  overflow="visible"/>
	</clipPath>
	<rect x="52.7" y="36.3" clip-path="url(#SVGID_4_)" fill="#E36936" width="16.4" height="47"/>
</g>
<g>
	<defs>
		<path id="SVGID_5_" d="M73.2,72.2C72.5,67,72.9,61.6,74,58.6c0.4-1-0.2-2.2-1.2-2.6c-1-0.4-2.2,0.2-2.6,1.2
			c-1.3,3.7-1.8,9.7-1,15.5c0.1,1.1,1.2,1.9,2.2,1.7C72.6,74.3,73.4,73.3,73.2,72.2z"/>
	</defs>
	<clipPath id="SVGID_6_">
		<use xlink:href="#SVGID_5_"  overflow="visible"/>
	</clipPath>
	<rect x="63.9" y="50.9" clip-path="url(#SVGID_6_)" fill="#E36936" width="15.3" height="28.6"/>
</g>
<g>
	<path fill="none" d="M85.6,15.3c-0.1,0-0.1,0-0.2,0c-6.7,0-12.8,4.8-12.8,9.4c0,1.1-0.9,2-2,2c-1.1,0-2-0.9-2-2
		c0-5,4.1-9.7,9.7-11.9c-4.4-5.1-10.8-8.2-17.8-8.2c-9.9,0-18.5,6.2-21.9,15.2c3.1,0.9,5,3,6.3,6c0.4,1,0,2.2-1,2.6
		c-1,0.4-2.2,0-2.6-1c-1-2.4-2.3-3.7-5.1-4c-0.1,0-0.2,0-0.4,0c-0.3,0-0.6,0-0.9,0c-6.4,0-11.5,5.1-11.5,11.4
		c0,5.9,4.5,10.9,10.4,11.4c0.5,0,0.9,0.3,1.3,0.6c5.5,5.8,8.6,13.5,8.6,21.6c0,2.6-0.3,5.1-0.9,7.5c4.8,4,10.8,6.2,17.2,6.2
		c6.9,0,13.3-2.6,18.3-7.1c-0.5-2.2-0.7-4.4-0.7-6.6c0-6.2,1.8-12.2,5.2-17.3c0.4-0.6,1.1-0.9,1.8-0.9c0.3,0,0.6,0,0.9,0
		c9.7,0,17.5-7.8,17.5-17.4C102.9,23.2,95.2,15.4,85.6,15.3z"/>
	<path fill="#E36936" d="M33.2,19.4c-7.7,0.9-13.8,7.4-13.8,15.3c0,7.7,5.7,14.2,13.3,15.3c4.5,5,7.1,11.5,7.1,18.4
		c0,2.6-0.4,5.2-1.1,7.7c-0.2,0.7,0,1.5,0.6,2c5.7,5.1,13,8,20.8,8c8.3,0,16.1-3.3,21.9-9c0.5-0.5,0.7-1.2,0.5-1.9
		c-0.6-2.2-0.8-4.5-0.8-6.8c0-5.1,1.4-10,4-14.2c11.8-0.1,21.4-9.6,21.4-21.4c0-11.8-9.6-21.4-21.5-21.4c-1,0-2,0.1-3,0.2
		c-5.1-6.8-13.2-11-21.9-11c-11.9,0-22.3,7.7-25.9,18.7 M85.4,50.2c-0.3,0-0.6,0-0.9,0c-0.7,0-1.4,0.3-1.8,0.9
		c-3.4,5.1-5.2,11.1-5.2,17.3c0,2.2,0.2,4.5,0.7,6.6C73.4,79.5,66.9,82,60,82c-6.4,0-12.4-2.2-17.2-6.2c0.6-2.4,0.9-5,0.9-7.5
		c0-8.1-3.1-15.8-8.6-21.6c-0.3-0.4-0.8-0.6-1.3-0.6c-5.9-0.5-10.4-5.5-10.4-11.4c0-6.3,5.1-11.4,11.5-11.4c0.3,0,0.5,0,0.6,0
		c0.3,0,0.6,0,0.7,0c2.7,0.3,4.1,1.6,5.1,4c0.4,1,1.6,1.5,2.6,1c1-0.4,1.5-1.6,1-2.6c-1.3-3-3.2-5.2-6.3-6c3.3-9,12-15.2,21.9-15.2
		c7,0,13.4,3.1,17.8,8.2c-5.6,2.3-9.7,7-9.7,11.9c0,1.1,0.9,2,2,2c1.1,0,2-0.9,2-2c0-4.5,6.1-9.4,12.8-9.4c0.1,0,0.1,0,0.2,0
		c9.6,0.1,17.3,7.9,17.3,17.4C102.9,42.3,95.1,50.2,85.4,50.2z"/>
</g>
<g>
	<path fill="none" d="M24.8,99.6l6.1-6.1c0,0,0,0,0,0l0.7-0.7c0,0,0,0,0,0l1.4-1.4L4.8,63.2c-0.2,1-0.4,2-0.5,3
		C3.7,70.9,4,74.8,5.4,77.3c1.4,2.5,4.7,6.7,9.4,11.8C18,92.7,21.5,96.4,24.8,99.6z"/>
	<path fill="none" d="M34.5,95.6l-0.7,0.7c-1.6,1.6-1.3,3.7,0.6,4.8c0,0,5.3,2.8,7.4,4.9c1.7,1.7,4.8,7.4,4.8,7.4
		c1.1,1.9,3.3,2.2,4.8,0.6l0.7-0.7c1.6-1.6,1.6-4.1,0-5.6l-12-12C38.6,94.1,36,94.1,34.5,95.6z"/>
	<path fill="#E36936" d="M29.2,100.9c0.6,1.5,1.6,2.8,3.2,3.7l0.1,0c0.1,0.1,0.4,0.2,0.8,0.4c0.6,0.3,1.3,0.7,1.9,1.1
		c0.5,0.3,1.1,0.7,1.5,1c1,0.7,1.8,1.3,2.2,1.7c0.3,0.3,1,1.2,1.8,2.5c0.2,0.4,0.5,0.7,0.7,1.1c0.4,0.7,0.8,1.4,1.2,2
		c0.2,0.4,0.4,0.7,0.5,0.9c2.5,4.2,7.7,4.9,11.2,1.5l0.7-0.7c3.1-3.1,3.1-8.2,0-11.3l-12-12c-1.4-1.4-3.3-2.2-5.1-2.3L5.9,58.6v0
		l-1.4-1.4h0l-1.8-1.8c0,0-0.3,0.9-0.8,2.4l0,0c0,0,0,0,0,0c-0.1,0.3-0.1,0.5-0.2,0.8c0,0.1,0,0.1-0.1,0.2c-0.1,0.3-0.1,0.5-0.2,0.8
		c0,0,0,0.1,0,0.1l0,0C0.2,65-1.2,73.5,1.8,79.2c4.4,8,23,26.1,23,26.1L29.2,100.9z M52.1,107.7c1.6,1.6,1.6,4.1,0,5.6l-0.7,0.7
		c-1.6,1.6-3.7,1.3-4.8-0.6c0,0-3.1-5.7-4.8-7.4c-2.1-2.1-7.4-4.9-7.4-4.9c-1.9-1.1-2.2-3.2-0.6-4.8l0.7-0.7c1.6-1.6,4.1-1.6,5.6,0
		L52.1,107.7z M5.4,77.3C4,74.8,3.7,70.9,4.3,66.2c0.1-1,0.3-2,0.5-3L33,91.4l-1.4,1.4c0,0,0,0,0,0l-0.7,0.7c0,0,0,0,0,0l-6.1,6.1
		c-3.3-3.3-6.8-6.9-10.1-10.6C10.1,83.9,6.7,79.8,5.4,77.3z"/>
</g>
<path fill="#E36936" d="M111.6,75.7l7.8-7.8c0.8-0.8,0.8-2,0-2.8c-0.8-0.8-2-0.8-2.8,0l-7.8,7.8c-0.8,0.8-0.8,2,0,2.8
	C109.5,76.5,110.8,76.5,111.6,75.7z"/>
<path fill="#E36936" d="M122.9,71.5c0.8-0.8,0.8-2,0-2.8c-0.8-0.8-2-0.8-2.8,0l-7.8,7.8c-0.8,0.8-0.8,2,0,2.8c0.8,0.8,2,0.8,2.8,0
	L122.9,71.5z"/>
<path fill="#E36936" d="M108,72.2l7.8-7.8c0.8-0.8,0.8-2,0-2.8c-0.8-0.8-2-0.8-2.8,0l-7.8,7.8c-0.8,0.8-0.8,2,0,2.8
	C106,73,107.2,73,108,72.2z"/>
<g>
	<path fill="none" d="M110.1,81.4c1.6,1.6,4.1,1.6,5.7,0l9.2-9.2c1.6-1.6,1.6-4.1,0-5.7l-7.1-7.1c-1.6-1.6-4.1-1.6-5.7,0l-9.2,9.2
		c-1.6,1.6-1.6,4.1,0,5.7L110.1,81.4z"/>
	<path fill="none" d="M81.1,97.7l-10.6,10.6c-1.6,1.6-1.6,4.1,0,5.7c1.6,1.6,4.1,1.6,5.7,0l10.6-10.6c1.6-1.6,1.6-4.1,0-5.7
		C85.2,96.1,82.7,96.1,81.1,97.7z"/>
	<path fill="#E36936" d="M105.2,82.1l2.1,2.1c3.1,3.1,8.2,3.1,11.3,0l9.2-9.2c3.1-3.1,3.1-8.2,0-11.3l-7.1-7.1
		c-3.1-3.1-8.2-3.1-11.3,0l-9.2,9.2c-3.1,3.1-3.1,8.2,0,11.3l2.1,2.1l0,0L88,93.6c-3.1-1.8-7.1-1.4-9.7,1.2l-10.6,10.6
		c-3.1,3.1-3.1,8.2,0,11.3c3.1,3.1,8.2,3.1,11.3,0l10.6-10.6c2.6-2.6,3-6.7,1.2-9.7L105.2,82.1z M103.1,68.7l9.2-9.2
		c1.6-1.6,4.1-1.6,5.7,0l7.1,7.1c1.6,1.6,1.6,4.1,0,5.7l-9.2,9.2c-1.6,1.6-4.1,1.6-5.7,0l-7.1-7.1C101.5,72.8,101.5,70.2,103.1,68.7
		z M86.8,103.3l-10.6,10.6c-1.6,1.6-4.1,1.6-5.7,0c-1.6-1.6-1.6-4.1,0-5.7l10.6-10.6c1.6-1.6,4.1-1.6,5.7,0
		C88.4,99.2,88.4,101.7,86.8,103.3z"/>
</g>
<path fill="#6ECDE1" d="M84.7,98.5c-0.6-0.6-1.5-0.6-2.1,0l-9.9,9.9c-0.6,0.6-0.6,1.5,0,2.1c0.6,0.6,1.5,0.6,2.1,0l9.9-9.9
	C85.3,100.1,85.3,99.1,84.7,98.5z"/>
<path fill="#6ECDE1" d="M28.9,89.7L10.5,71.3c-0.6-0.6-1.5-0.6-2.1,0c-0.6,0.6-0.6,1.5,0,2.1l18.4,18.4c0.6,0.6,1.5,0.6,2.1,0
	C29.5,91.2,29.5,90.3,28.9,89.7z"/>
<g>
	<defs>
		<path id="SVGID_7_" d="M80.1,23.5c3.3-3.3,8.9-3.5,13.2,0.8c4.6,4.6,4.5,11,0.6,14.8c-0.6,0.6-0.6,1.5,0,2.1
			c0.6,0.6,1.5,0.6,2.1,0c5.1-5.1,5.2-13.4-0.6-19.1c-5.5-5.5-13-5.2-17.4-0.8c-0.6,0.6-0.6,1.5,0,2.1
			C78.6,24.1,79.6,24.1,80.1,23.5z"/>
	</defs>
	<clipPath id="SVGID_8_">
		<use xlink:href="#SVGID_7_"  overflow="visible"/>
	</clipPath>
	<rect x="72.6" y="13.1" clip-path="url(#SVGID_8_)" fill="#6ECDE1" width="32.2" height="33.7"/>
</g>
<g>
	<defs>
		<path id="SVGID_9_" d="M46.9,18.3c5.6-8,15-9.2,21.9-4.2c0.7,0.5,1.6,0.3,2.1-0.3c0.5-0.7,0.3-1.6-0.3-2.1
			C62.4,5.8,51,7.2,44.4,16.6c-0.5,0.7-0.3,1.6,0.4,2.1C45.5,19.2,46.4,19,46.9,18.3z"/>
	</defs>
	<clipPath id="SVGID_10_">
		<use xlink:href="#SVGID_9_"  overflow="visible"/>
	</clipPath>
	<rect x="39.2" y="3.1" clip-path="url(#SVGID_10_)" fill="#6ECDE1" width="37" height="20.8"/>
</g>
<g>
	<defs>
		<circle id="SVGID_11_" cx="37.7" cy="98.5" r="1.5"/>
	</defs>
	<clipPath id="SVGID_12_">
		<use xlink:href="#SVGID_11_"  overflow="visible"/>
	</clipPath>
	<rect x="31.2" y="92" clip-path="url(#SVGID_12_)" fill="#6ECDE1" width="13" height="13"/>
</g>
<g>
	<defs>
		<circle id="SVGID_13_" cx="49.7" cy="110.5" r="1.5"/>
	</defs>
	<clipPath id="SVGID_14_">
		<use xlink:href="#SVGID_13_"  overflow="visible"/>
	</clipPath>
	<rect x="43.2" y="104" clip-path="url(#SVGID_14_)" fill="#6ECDE1" width="13" height="13"/>
</g>
</svg>
