<?xml version="1.0" encoding="utf-8"?>
<!-- Generator: Adobe Illustrator 19.0.1, SVG Export Plug-In . SVG Version: 6.00 Build 0)  -->
<svg version="1.1" id="Layer_1"
	 xmlns="http://www.w3.org/2000/svg" xmlns:xlink="http://www.w3.org/1999/xlink" x="0px" y="0px" viewBox="0 0 179.6 122.7"
	 enable-background="new 0 0 179.6 122.7" xml:space="preserve">
<metadata>
	<sfw>
		<slices></slices>
		<sliceSourceBounds  height="122.7" width="179.6" bottomLeftOrigin="true" x="421.7" y="-1058.7"></sliceSourceBounds>
	</sfw>
</metadata>
<path fill="#6ECDE1" d="M131.7,40.6c-0.7-5.1-5.1-9.1-10.4-9.1c-1.3,0-2.5,0.2-3.6,0.6c-0.4-2-2.1-3.5-4.1-3.6c-0.7-2.3-2.8-4-5.3-4
	c-0.6,0-1.1,0.1-1.6,0.2c-1.5-2.6-4.3-4.2-7.4-4.2c-4.2,0-7.7,3-8.4,7h-5.5c-0.8,0-1.5,0.7-1.5,1.5s0.7,1.5,1.5,1.5h6.9
	c0.8,0,1.5-0.7,1.5-1.5c0-3,2.5-5.5,5.5-5.5c2.4,0,4.5,1.5,5.2,3.7c0.2,0.5,0.5,0.8,1,1c0.5,0.1,1,0.1,1.3-0.2
	c0.4-0.3,0.9-0.5,1.5-0.5c1.4,0,2.5,1.1,2.5,2.6c0,0.5,0.2,1,0.6,1.3c0.4,0.3,0.9,0.4,1.4,0.2c0.2-0.1,0.3-0.1,0.5-0.1
	c0.8,0,1.5,0.7,1.5,1.5c0,0.2,0.1,0.5,0.2,0.6c-2.2,1.7-3.7,4.1-4.1,7c-3,0.6-5.3,2.9-5.9,5.9h-8.5c-0.8,0-1.5,0.7-1.5,1.5
	s0.7,1.5,1.5,1.5h9.8c0.8,0,1.5-0.7,1.5-1.5c0-2.5,2-4.5,4.5-4.5c0.8,0,1.5-0.7,1.5-1.5c0-4.1,3.4-7.5,7.5-7.5s7.5,3.4,7.5,7.5
	c0,0.4,0.2,0.8,0.5,1.1s0.7,0.4,1.1,0.4c0.1,0,0.3,0,0.4,0c2.8,0,5,2.2,5,5c0,0.8,0.7,1.5,1.5,1.5s1.5-0.7,1.5-1.5
	C138.8,44.4,135.7,41,131.7,40.6z"/>
<path fill="#6ECDE1" d="M111.8,116c-0.8,0-1.5,0.7-1.5,1.5v1.5h-5.5c-0.8,0-1.5,0.7-1.5,1.5c0,0.8,0.7,1.5,1.5,1.5h7
	c0.4,0,0.8-0.2,1.1-0.4c0.3-0.3,0.4-0.6,0.4-1.1v-3C113.3,116.7,112.7,116,111.8,116z"/>
<path fill="#6ECDE1" d="M94.8,119h-1.5v-1.5c0-0.8-0.7-1.5-1.5-1.5c-0.8,0-1.5,0.7-1.5,1.5v1.5h-2.5c-0.8,0-1.5,0.7-1.5,1.5
	c0,0.8,0.7,1.5,1.5,1.5h7c0.8,0,1.5-0.7,1.5-1.5C96.3,119.7,95.7,119,94.8,119z"/>
<path fill="#6ECDE1" d="M153.8,95.5c-0.8,0-1.5,0.7-1.5,1.5v2h-5.5c-0.8,0-1.5,0.7-1.5,1.5c0,0.8,0.7,1.5,1.5,1.5h5.5v1
	c0,0.8,0.7,1.5,1.5,1.5c0.8,0,1.5-0.7,1.5-1.5v-6C155.3,96.2,154.7,95.5,153.8,95.5z"/>
<path fill="#6ECDE1" d="M144.8,111h-9c-0.8,0-1.5,0.7-1.5,1.5c0,0.8,0.7,1.5,1.5,1.5h0.5v2h-3.5c-0.8,0-1.5,0.7-1.5,1.5
	c0,0.8,0.7,1.5,1.5,1.5h5c0,0,0,0,0,0s0,0,0,0c0.8,0,1.5-0.7,1.5-1.5V114h5.5c0.8,0,1.5-0.7,1.5-1.5
	C146.3,111.7,145.7,111,144.8,111z"/>
<g>
	<circle fill="none" cx="51.8" cy="59.5" r="6.5"/>
	<path fill="#E36936" d="M51.8,49c-5.8,0-10.5,4.7-10.5,10.5C41.3,65.3,46,70,51.8,70s10.5-4.7,10.5-10.5C62.3,53.7,57.6,49,51.8,49
		z M51.8,66c-3.6,0-6.5-2.9-6.5-6.5s2.9-6.5,6.5-6.5s6.5,2.9,6.5,6.5S55.4,66,51.8,66z"/>
</g>
<path fill="#E36936" d="M55.5,60l-2.1-1.2v-2.2c0-0.8-0.7-1.5-1.5-1.5c-0.8,0-1.5,0.7-1.5,1.5v3c0,0.5,0.3,1,0.7,1.3
	c0.1,0.1,0.2,0.2,0.3,0.3l2.6,1.5c0.7,0.4,1.6,0.2,2-0.5C56.5,61.3,56.2,60.4,55.5,60z"/>
<path fill="#6ECDE1" d="M57.8,82.7h-3.5v-2.5c0-0.1,0-0.1,0-0.2h3.5c0.8,0,1.5-0.7,1.5-1.5c0-0.8-0.7-1.5-1.5-1.5h-10
	c-0.8,0-1.5,0.7-1.5,1.5c0,0.8,0.7,1.5,1.5,1.5h3.5c0,0.1,0,0.1,0,0.2v4c0,0,0,0,0,0s0,0,0,0c0,0.2,0,0.4,0.1,0.5c0,0,0,0,0,0.1
	c0,0,0,0,0,0.1c0.2,0.5,0.8,0.9,1.4,0.9c0,0,0,0,0,0s0,0,0,0h5c0.8,0,1.5-0.7,1.5-1.5C59.3,83.4,58.7,82.7,57.8,82.7z"/>
<path fill="#6ECDE1" d="M105.8,111h-6v-2h2c0.8,0,1.5-0.7,1.5-1.5c0-0.8-0.7-1.5-1.5-1.5h-10c-0.8,0-1.5,0.7-1.5,1.5
	c0,0.8,0.7,1.5,1.5,1.5h5v3.5c0,0.8,0.7,1.5,1.5,1.5c0.1,0,0.2,0,0.2,0c0.1,0,0.2,0,0.2,0h7c0.8,0,1.5-0.7,1.5-1.5
	C107.3,111.7,106.7,111,105.8,111z"/>
<path fill="#6ECDE1" d="M60.8,100h-1v-3c0-0.8-0.7-1.5-1.5-1.5c-0.8,0-1.5,0.7-1.5,1.5v3h-3c-0.8,0-1.5,0.7-1.5,1.5
	c0,0.8,0.7,1.5,1.5,1.5h7c0.8,0,1.5-0.7,1.5-1.5C62.3,100.7,61.7,100,60.8,100z"/>
<path fill="#6ECDE1" d="M45.8,93h-1.5v-1.5c0-0.8-0.7-1.5-1.5-1.5c-0.8,0-1.5,0.7-1.5,1.5v3c0,0.5,0.2,0.9,0.5,1.1
	c0.3,0.2,0.6,0.4,1,0.4h3c0.8,0,1.5-0.7,1.5-1.5C47.3,93.7,46.7,93,45.8,93z"/>
<path fill="#6ECDE1" d="M53.8,108h-10c-0.8,0-1.5,0.7-1.5,1.5c0,0.8,0.7,1.5,1.5,1.5h1.5v1.5c0,0.2,0,0.3,0.1,0.5h-0.6
	c-0.8,0-1.5,0.7-1.5,1.5c0,0.8,0.7,1.5,1.5,1.5h7c0.8,0,1.5-0.7,1.5-1.5c0-0.8-0.7-1.5-1.5-1.5h-3.6c0.1-0.2,0.1-0.3,0.1-0.5V111
	h5.5c0.8,0,1.5-0.7,1.5-1.5C55.3,108.7,54.7,108,53.8,108z"/>
<path fill="#6ECDE1" d="M63.8,29c-0.8,0-1.5,0.7-1.5,1.5v3c0,0.8,0.7,1.5,1.5,1.5c0.8,0,1.5-0.7,1.5-1.5v-3
	C65.3,29.7,64.7,29,63.8,29z"/>
<path fill="#6ECDE1" d="M57.8,29c-0.8,0-1.5,0.7-1.5,1.5v3c0,0.8,0.7,1.5,1.5,1.5c0.8,0,1.5-0.7,1.5-1.5v-3
	C59.3,29.7,58.7,29,57.8,29z"/>
<path fill="#6ECDE1" d="M51.8,29c-0.8,0-1.5,0.7-1.5,1.5v3c0,0.8,0.7,1.5,1.5,1.5c0.8,0,1.5-0.7,1.5-1.5v-3
	C53.3,29.7,52.7,29,51.8,29z"/>
<path fill="#6ECDE1" d="M45.8,29c-0.8,0-1.5,0.7-1.5,1.5v3c0,0.8,0.7,1.5,1.5,1.5c0.8,0,1.5-0.7,1.5-1.5v-3
	C47.3,29.7,46.7,29,45.8,29z"/>
<path fill="#6ECDE1" d="M39.8,29c-0.8,0-1.5,0.7-1.5,1.5v3c0,0.8,0.7,1.5,1.5,1.5c0.8,0,1.5-0.7,1.5-1.5v-3
	C41.3,29.7,40.7,29,39.8,29z"/>
<path fill="#6ECDE1" d="M63.4,47.9c-2.5-2.9-6.7-4.7-11.2-4.7c-0.8,0-1.5,0.7-1.5,1.5s0.7,1.5,1.5,1.5c3.6,0,7,1.4,8.9,3.6
	c0.3,0.3,0.7,0.5,1.1,0.5c0.3,0,0.7-0.1,1-0.4C63.8,49.5,63.9,48.5,63.4,47.9z"/>
<path fill="#6ECDE1" d="M108.9,79.7l-7.4-6.7c-0.6-0.6-1.6-0.5-2.1,0.1c-0.6,0.6-0.5,1.6,0.1,2.1l7.4,6.7c0.6,0.6,1.6,0.5,2.1-0.1
	C109.6,81.2,109.5,80.3,108.9,79.7z"/>
<g>
	<rect x="104.4" y="96" fill="none" width="3" height="3"/>
	<path fill="#E36936" d="M109.4,92h-7c-1.1,0-2,0.9-2,2v7c0,1.1,0.9,2,2,2h7c1.1,0,2-0.9,2-2v-7C111.4,92.9,110.5,92,109.4,92z
		 M107.4,99h-3v-3h3V99z"/>
</g>
<g>
	<rect x="89.4" y="96" fill="none" width="3" height="3"/>
	<path fill="#E36936" d="M94.4,92h-7c-1.1,0-2,0.9-2,2v7c0,1.1,0.9,2,2,2h7c1.1,0,2-0.9,2-2v-7C96.4,92.9,95.5,92,94.4,92z M92.4,99
		h-3v-3h3V99z"/>
</g>
<g>
	<rect x="138.3" y="77.6" fill="none" width="4" height="10"/>
	<rect x="146.3" y="77.6" fill="none" width="4" height="10"/>
	<path fill="#E36936" d="M154.3,75.6c0-1.1-0.9-2-2-2h-16c-1.1,0-2,0.9-2,2c0,0.2,0,0.3,0.1,0.5c0,0.2-0.1,0.3-0.1,0.5V89
		c0,0.1,0,0.2,0,0.3c0,0.1,0,0.2,0,0.3c0,1.1,0.9,2,2,2h16c1.1,0,2-0.9,2-2c0-0.1,0-0.2,0-0.3c0-0.1,0-0.2,0-0.3V76.5
		c0-0.2,0-0.3-0.1-0.5C154.3,75.9,154.3,75.7,154.3,75.6z M138.3,87.6v-10h4v10H138.3z M146.3,87.6v-10h4v10H146.3z"/>
</g>
<path fill="#6ECDE1" d="M137.8,101h-4c-0.8,0-1.5,0.7-1.5,1.5c0,0.8,0.7,1.5,1.5,1.5h4c0.8,0,1.5-0.7,1.5-1.5
	C139.3,101.7,138.7,101,137.8,101z"/>
<g>
	<rect x="138.3" y="51" fill="none" width="8" height="6"/>
	<path fill="none" d="M132.3,65h24c0.6,0,1-0.5,1-1v-2c0-0.6-0.4-1-1-1h-9h-10h-5c-0.6,0-1,0.5-1,1v2C131.3,64.6,131.8,65,132.3,65z
		"/>
	<path fill="none" d="M61.3,21.5c0-0.8-0.7-1.5-1.5-1.5h-16c-0.8,0-1.5,0.7-1.5,1.5V23h19V21.5z"/>
	<path fill="none" d="M64.3,27h-25c-1.6,0-3,1.3-3,3v4c0,1.1,0.6,2.1,1.6,2.6h27.9c0.9-0.5,1.6-1.5,1.6-2.6v-4
		C67.3,28.3,66,27,64.3,27z"/>
	<path fill="none" d="M98.3,68L81.1,83c-0.7,0.6-0.9,1.2-0.6,1.6h35.7c0.3-0.4,0.1-0.9-0.6-1.6L98.3,68z"/>
	<path fill="#E36936" d="M177.6,118.7h-13.7V67.3c0-1.1-0.9-2-2-2h-0.7c0.1-0.4,0.2-0.9,0.2-1.3v-2c0-2.8-2.2-5-5-5h-6v-7
		c0-1.6-1.3-3-3-3h-10c-1.6,0-3,1.3-3,3v7h-2c-2.8,0-5,2.2-5,5v2c0,0.5,0.1,0.9,0.2,1.3h-0.4c-1.1,0-2,0.9-2,2v50.4h-6V87.2
		c0.5-0.6,0.7-1.1,0.9-1.4c0.3-0.7,1-3.4-1.8-5.8L101,65c-1.5-1.3-3.8-1.3-5.3,0L78.5,80c-2.8,2.4-2.1,5.1-1.8,5.8
		c0.1,0.3,0.5,1,1.1,1.7v30.3h-8.4V38.9c1.2-1.3,2-3,2-4.9v-4c0-3.5-2.6-6.4-6-6.9v-1.6c0-3-2.5-5.5-5.5-5.5h-5.5V2c0-1.1-0.9-2-2-2
		s-2,0.9-2,2v14h-6.5c-3,0-5.5,2.5-5.5,5.5v1.6c-3.4,0.5-6,3.4-6,6.9v4c0,1.8,0.7,3.5,1.9,4.7v80H2c-1.1,0-2,0.9-2,2s0.9,2,2,2h34.2
		c1.1,0,2-0.9,2-2V40.9C38.6,41,39,41,39.3,41h25c0.3,0,0.7,0,1-0.1v78.8c0,1.1,0.9,2,2,2h12.4c1.1,0,2-0.9,2-2V89c0,0,0.1,0,0.1,0
		h33c0.1,0,0.2,0,0.4,0v30.8c0,1.1,0.9,2,2,2h10c1.1,0,2-0.9,2-2V69.3h30.7v51.4c0,1.1,0.9,2,2,2h15.7c1.1,0,2-0.9,2-2
		C179.6,119.6,178.7,118.7,177.6,118.7z M138.3,51h8v6h-8V51z M131.3,62c0-0.6,0.5-1,1-1h5h10h9c0.6,0,1,0.4,1,1v2c0,0.6-0.5,1-1,1
		h-24c-0.6,0-1-0.4-1-1V62z M42.3,21.5c0-0.8,0.7-1.5,1.5-1.5h16c0.8,0,1.5,0.7,1.5,1.5V23h-19V21.5z M67.3,34
		c0,1.1-0.6,2.1-1.6,2.6H37.9c-0.9-0.5-1.6-1.5-1.6-2.6v-4c0-1.7,1.4-3,3-3h25c1.7,0,3,1.3,3,3V34z M116.2,84.6H80.5
		c-0.3-0.4-0.1-0.9,0.6-1.6l17.2-15l17.2,15C116.3,83.7,116.5,84.2,116.2,84.6z"/>
</g>
</svg>
