<?xml version="1.0" encoding="utf-8"?>
<!-- Generator: Adobe Illustrator 19.0.1, SVG Export Plug-In . SVG Version: 6.00 Build 0)  -->
<svg version="1.1" id="Layer_1"
	 xmlns="http://www.w3.org/2000/svg" xmlns:xlink="http://www.w3.org/1999/xlink" x="0px" y="0px" viewBox="0 0 133.5 113.8"
	 enable-background="new 0 0 133.5 113.8" xml:space="preserve">
<metadata>
	<sfw>
		<slices></slices>
		<sliceSourceBounds  height="113.8" width="133.5" bottomLeftOrigin="true" x="445" y="-1058"></sliceSourceBounds>
	</sfw>
</metadata>
<g>
	<path fill="#6ECDE1" d="M94,38.8H73c-1.7,0-3,1.3-3,3v21.8l4-0.5V42.8h19v17.3h4V41.8C97,40.1,95.7,38.8,94,38.8z"/>
	<path fill="#6ECDE1" d="M93,77.1v0.7h-9.6l-9.4,0.7c0,0.1,0.1,0.2,0.1,0.3h-4c0,1.6,1.3,3,3,3h21c1.7,0,3-1.3,3-3v-2h0L93,77.1z"/>
</g>
<g>
	<path fill="none" d="M94.5,82.8h-22c-1.4,0-2.5,1.1-2.5,2.5c0,1.4,1.1,2.5,2.5,2.5h22c1.4,0,2.5-1.1,2.5-2.5
		C97,83.9,95.9,82.8,94.5,82.8z"/>
	<path fill="#6ECDE1" d="M101,85.3c0-3.6-2.9-6.5-6.5-6.5h-22c-3.6,0-6.5,2.9-6.5,6.5c0,0.3,0,0.7,0.1,1c0,0.2-0.1,0.3-0.1,0.5v25
		c0,1.1,0.9,2,2,2c1.1,0,2-0.9,2-2V91.3c0.8,0.3,1.6,0.5,2.5,0.5h22c0.9,0,1.7-0.2,2.5-0.5v20.5c0,1.1,0.9,2,2,2c1.1,0,2-0.9,2-2
		v-25c0-0.2,0-0.4-0.1-0.5C101,85.9,101,85.6,101,85.3z M94.5,87.8h-22c-1.4,0-2.5-1.1-2.5-2.5c0-1.4,1.1-2.5,2.5-2.5h22
		c1.4,0,2.5,1.1,2.5,2.5C97,86.7,95.9,87.8,94.5,87.8z"/>
</g>
<rect x="55" y="43.8" fill="#6ECDE1" width="4" height="21"/>
<g>
	<path fill="none" d="M56.5,82.8h-22c-1.4,0-2.5,1.1-2.5,2.5c0,1.4,1.1,2.5,2.5,2.5h22c1.4,0,2.5-1.1,2.5-2.5
		C59,83.9,57.9,82.8,56.5,82.8z"/>
	<path fill="#6ECDE1" d="M63,85.5C63,85.4,63,85.4,63,85.5c0-0.1,0-0.1,0-0.2c0-3.6-2.9-6.5-6.5-6.5h-22c-3.6,0-6.5,2.9-6.5,6.5
		c0,0.2,0,0.3,0,0.5c0,0.1,0,0.2,0,0.2v25.8c0,1.1,0.9,2.1,2,2.1c1.1,0,2-0.9,2-2.1V91.3c0.8,0.3,1.6,0.5,2.5,0.5h22
		c0.9,0,1.7-0.2,2.5-0.5v20.5c0,1.1,0.9,2,2,2c1.1,0,2-0.9,2-2V85.5z M56.5,87.8h-22c-1.4,0-2.5-1.1-2.5-2.5c0-1.4,1.1-2.5,2.5-2.5
		h22c1.4,0,2.5,1.1,2.5,2.5C59,86.7,57.9,87.8,56.5,87.8z"/>
</g>
<path fill="#6ECDE1" d="M49.3,21.2l-1.1-2.8c-0.3-0.8-1.2-1.2-1.9-0.9c-0.8,0.3-1.2,1.2-0.9,1.9l1.1,2.8c0.3,0.8,1.2,1.2,1.9,0.9
	C49.2,22.8,49.6,22,49.3,21.2z"/>
<circle fill="#6ECDE1" cx="45.4" cy="15.2" r="1.5"/>
<path fill="#6ECDE1" d="M84.1,23l-0.6-6c-0.1-0.8-0.8-1.4-1.6-1.3c-0.8,0.1-1.4,0.8-1.3,1.7l0.6,6c0.1,0.8,0.8,1.4,1.6,1.3
	C83.6,24.6,84.2,23.9,84.1,23z"/>
<path fill="#6ECDE1" d="M107.3,12.7l-7.8-4.5c-0.7-0.4-1.6-0.2-2,0.6c-0.4,0.7-0.2,1.6,0.5,2l7.8,4.5c0.7,0.4,1.6,0.2,2-0.6
	C108.3,14,108,13.1,107.3,12.7z"/>
<path fill="#6ECDE1" d="M110.2,8.4l-0.5-1.9c-0.2-0.8-1-1.3-1.8-1.1c-0.8,0.2-1.3,1-1.1,1.8l0.5,1.9c0.2,0.8,1,1.3,1.8,1.1
	C109.9,10,110.4,9.2,110.2,8.4z"/>
<path fill="#6ECDE1" d="M105.4,17.8c-0.2-0.8-1-1.3-1.8-1.1l-5.8,1.5c-0.8,0.2-1.3,1-1.1,1.8c0.2,0.8,1,1.3,1.8,1.1l5.8-1.5
	C105.2,19.5,105.7,18.6,105.4,17.8z"/>
<path fill="#6ECDE1" d="M28.5,0.8c-0.7-0.4-1.6-0.2-2,0.5L22,9.1c-0.4,0.7-0.2,1.6,0.6,2c0.7,0.4,1.6,0.2,2-0.5l4.5-7.8
	C29.5,2.1,29.3,1.2,28.5,0.8z"/>
<path fill="#6ECDE1" d="M31.9,11.1c-0.2-0.8-1-1.3-1.8-1.1l-1.9,0.5c-0.8,0.2-1.3,1-1.1,1.8c0.2,0.8,1,1.3,1.8,1.1l1.9-0.5
	C31.6,12.8,32.1,11.9,31.9,11.1z"/>
<path fill="#6ECDE1" d="M20.5,6.9L19,1.1c-0.2-0.8-1-1.3-1.8-1.1c-0.8,0.2-1.3,1-1.1,1.8l1.5,5.8c0.2,0.8,1,1.3,1.8,1.1
	C20.3,8.5,20.7,7.7,20.5,6.9z"/>
<g>
	<circle fill="none" cx="118" cy="20.8" r="5"/>
	<path fill="#E36936" d="M118,11.8c-5,0-9,4-9,9c0,5,4,9,9,9s9-4,9-9C127,15.8,123,11.8,118,11.8z M118,25.8c-2.8,0-5-2.2-5-5
		s2.2-5,5-5s5,2.2,5,5S120.8,25.8,118,25.8z"/>
</g>
<path fill="#6ECDE1" d="M117.5,80.8c-0.8,0-1.5,0.7-1.5,1.5v20c0,0.8,0.7,1.5,1.5,1.5c0.8,0,1.5-0.7,1.5-1.5v-20
	C119,81.5,118.3,80.8,117.5,80.8z"/>
<path fill="#6ECDE1" d="M16.5,80.8c-0.8,0-1.5,0.7-1.5,1.5v20c0,0.8,0.7,1.5,1.5,1.5c0.8,0,1.5-0.7,1.5-1.5v-20
	C18,81.5,17.3,80.8,16.5,80.8z"/>
<path fill="#6ECDE1" d="M122.5,67.8h-10c-0.8,0-1.5,0.7-1.5,1.5c0,0.8,0.7,1.5,1.5,1.5h10c0.8,0,1.5-0.7,1.5-1.5
	C124,68.5,123.3,67.8,122.5,67.8z"/>
<path fill="#6ECDE1" d="M17.5,67.3H8c-0.8,0-1.5,0.7-1.5,1.5c0,0.8,0.7,1.5,1.5,1.5h9.5c0.8,0,1.5-0.7,1.5-1.5
	C19,68,18.3,67.3,17.5,67.3z"/>
<g>
	<ellipse transform="matrix(-0.9336 0.3584 -0.3584 -0.9336 117.2657 61.8198)" fill="none" cx="52.9" cy="41.8" rx="5" ry="1"/>
	<path fill="none" d="M26.1,63.2c-1.4,1.7-3.7,2.4-6.8,1.9c1.4,1.6,7.5,2.8,14.7,2.8c8.3,0,15-1.6,15-3.5s-6.7-3.5-15-3.5
		c-2.2,0-5,0.2-6.9,0.4C26.9,61.9,26.6,62.6,26.1,63.2z"/>
	<path fill="none" d="M42.8,27c0,0,3.4,0.9,4.6,0.4c1.3-0.5,3.2-3.4,3.2-3.4c0.3-0.5,0.4-1.2,0.2-1.8l-3.6-9.3
		c-0.2-0.5-0.8-0.8-1.3-0.6l-7.5,2.9c-0.5,0.2-0.8,0.8-0.6,1.3l3.6,9.3C41.6,26.3,42.2,26.9,42.8,27z"/>
	<rect x="15" y="79.8" fill="none" width="0" height="0"/>
	<circle fill="none" cx="15" cy="21.8" r="5"/>
	<path fill="none" d="M83,65.3c0,1.9,6.7,3.5,15,3.5c8.3,0,15-1.6,15-3.5c0-0.2-0.1-0.5-0.3-0.7c0,0,0,0,0,0
		c-1.4-1.6-7.5-2.8-14.7-2.8c-6.4,0-11.8,0.9-14,2.2"/>
	<path fill="none" d="M80.7,28.6c1.4-0.1,3.9-2.5,3.9-2.5c0.4-0.4,0.7-1.1,0.7-1.7l-1-9.9c-0.1-0.5-0.5-1-1.1-0.9l-8,0.8
		c-0.5,0.1-0.9,0.6-0.9,1.1l1,9.9c0.1,0.5,0.5,1.2,1,1.5C76.3,26.9,79.4,28.7,80.7,28.6z"/>
	<path fill="none" d="M82.2,42.9L82.2,42.9c-2.7,0.3-4.9,1-4.9,1.5c0.1,0.5,2.3,0.8,5.1,0.5c2.7-0.3,4.9-1,4.9-1.5
		C87.2,42.8,84.9,42.6,82.2,42.9z"/>
	<path fill="none" d="M23,60.6c0.4-0.5,0.5-1.6,0.1-2.5c-0.3-0.7-0.8-1-2.3-1.5c-0.2-0.1-1.8-0.5-2.3-0.7c-1.1-0.3-2-0.7-3-1.1
		c-2.5-1.1-3.9-2.9-4.3-5.1c-0.3-1.5-0.1-2.7,0.5-5.4c0.1-0.4,0.1-0.6,0.2-0.9c0.2-1.1,1.3-1.8,2.4-1.5c1.1,0.2,1.8,1.3,1.5,2.4
		c-0.1,0.3-0.1,0.5-0.2,0.9c-0.9,4-0.8,4.9,1.5,6c0.8,0.4,1.7,0.7,2.6,1c0.5,0.2,2,0.6,2.3,0.7c2.5,0.8,3.8,1.7,4.7,3.6
		c0.1,0.2,0.2,0.5,0.3,0.8c1-0.1,2.6-0.2,4.3-0.3c-0.1-0.4-0.2-0.8-0.3-1.2c-0.6-2.3-1.4-4.5-2.2-6.6c-0.9-2.4-1.9-4.4-2.8-5.9
		c-1.2-1.8,1-3.9,2.8-2.7c6.7,4.4,10.5,4,13.5,0.4c0.2-0.3,0.5-0.6,0.9-1c0.1-0.1,0.2-0.3,0.4-0.5c0.2-0.2,0.3-0.4,0.4-0.5
		c0.8-0.9,1.3-1.5,1.7-2.1c1.6-2.2,1.7-3.1,0.8-3.8c-0.9-0.6-1.3-0.5-2.5,0.7c-0.3,0.3-0.5,0.6-0.9,1.1c0,0-0.8,1-1.1,1.3
		c-0.9,1.1-1.6,1.8-2.4,2.5c-1.9,1.6-4.2,1.7-6.7,0.7c-1.3-0.5-2.6-1.3-4.2-2.4c0.1,0.1-2.6-1.9-3-2.2c-1.2-0.8-4.5-1.2-7.4-0.6
		c-4,0.9-7.1,3.6-8.8,8.7C5.9,53,8.5,57.3,17.7,60.5C20.8,61.5,22.4,61.4,23,60.6z"/>
	<path fill="none" d="M113.8,70.2c-1.1,0.6-2.5,1.1-4.2,1.5c-3.1,0.7-7.2,1.1-11.5,1.1s-8.4-0.4-11.5-1.1c-1.7-0.4-3.1-0.9-4.2-1.5
		c-1.8-1-3-2.4-3.2-4.4H52.9c0,0-0.1,0-0.1,0c-1,3-5.3,6-18.8,6c-7.9,0-17.2-1.1-18.8-6H4v10h122v-10h-9
		C116.8,67.8,115.5,69.2,113.8,70.2z"/>
	<path fill="none" d="M117,79.8L117,79.8l-4,0v26.9c0,1.7,1.3,3.1,3,3.1h2c1.7,0,3-1.4,3-3.1V80v-0.2H117
		C117,79.8,117,79.8,117,79.8z"/>
	<path fill="none" d="M122.7,36.7c-4.1-0.4-7.6-0.6-11.1-0.8c-1.3-0.1-2.6-0.1-4-0.2c-0.5,0-2.7-0.1-3.2-0.1
		c-3.2-0.2-4.9-0.3-6.7-0.6c-0.3-0.1-0.7-0.1-1-0.2c-1.4-0.3-2.5-0.6-5.3-1.7C91.1,33,91,33,90.9,32.9c-4.9-1.8-6.5-1.9-7.1-0.3
		c-0.4,1.2,0.8,2.5,3.8,3.8c2.5,1.1,5.2,1.8,8.5,2.5c3.8,0.8,12.3,2.1,12.5,2.1c1.2,0.2,1.9,1.5,1.5,2.6c-1.4,3.9-2.5,7.6-3.4,10.9
		c-0.3,1.2-0.6,2.2-0.8,3.1c-0.1,0.2-0.1,0.4-0.1,0.6c1.3,0.2,2.6,0.4,3.7,0.7c1.7,0.4,3.1,0.9,4.2,1.5c0.7,0.4,1.3,0.8,1.8,1.4h2.3
		c1.2-4.1,2-7.6,3-14c0.2-1.1,1.2-1.8,2.3-1.7c1.1,0.2,1.8,1.2,1.7,2.3c-0.9,6-1.7,9.6-2.8,13.4h5c0.1,0,0.2,0,0.2,0
		c1.7-7.4,2.4-11.7,2.3-15.9C129.3,40.1,127.3,37.1,122.7,36.7z"/>
	<path fill="none" d="M15,79.8C15,79.8,15,79.8,15,79.8h-4v26.9c0,1.7,1.3,3.1,3,3.1h2c1.7,0,3-1.4,3-3.1V79.8L15,79.8L15,79.8z"/>
	<rect x="117" y="79.8" fill="none" width="0" height="0"/>
	<path fill="#E36936" d="M133.5,45.7c-0.3-7.6-3.6-12.4-10.5-13c-4.1-0.4-7.7-0.6-11.2-0.8c-1.3-0.1-2.6-0.1-4-0.2
		c-0.5,0-2.7-0.1-3.2-0.1c-3-0.1-4.6-0.3-6.3-0.5c-0.3,0-0.6-0.1-0.9-0.2c-1.1-0.2-2.1-0.5-4.7-1.5c-0.3-0.1-0.4-0.1-0.5-0.2
		c-1.7-0.6-2.9-1-4-1.3c0.7-1.1,1.1-2.5,0.9-3.8l-1-9.9c-0.3-2.7-2.7-4.7-5.5-4.5l-8,0.8C72,10.7,70,13.2,70.3,16l1,9.9
		c0.2,1.8,1.4,3.6,3,4.5l0,0c0.5,0.3,1.2,0.7,2,1c0.4,0.2,0.7,0.3,1,0.4c0.6,0.2,1.1,0.4,1.7,0.5l0.7,6.8c-0.8,0.1-1.6,0.3-2.3,0.5
		c-0.7,0.2-1.4,0.5-1.9,0.8c-1.4,0.9-2.5,2.1-2.2,4.3c0.2,2.1,1.5,3.1,3.1,3.7c0.6,0.2,1.3,0.3,2.1,0.4c1.2,0.1,2.8,0.1,4.3-0.1
		s3.1-0.5,4.3-0.8c0.7-0.2,1.4-0.5,1.9-0.8c1.4-0.9,2.5-2.1,2.2-4.3c0-0.4-0.1-0.7-0.2-1.1c1.4,0.4,2.8,0.7,4.3,1
		c2.7,0.5,7.4,1.3,10.3,1.8c-1,3.1-2,6.1-2.7,8.9c-0.3,1.2-0.6,2.3-0.8,3.2c-0.1,0.3-0.2,0.6-0.2,0.9c0,0.1-0.1,0.2-0.1,0.3
		c-1.2-0.1-2.5-0.1-3.8-0.1c-4.3,0-8.4,0.4-11.5,1.1c-1.7,0.4-3.1,0.9-4.2,1.5c-0.7,0.4-1.3,0.8-1.8,1.4H52.9h-0.6
		c-2.3-3.8-9.9-4.9-16.9-5c-0.2-0.7-0.4-1.4-0.6-2.2c-0.7-2.4-1.4-4.7-2.3-6.9c-0.1-0.3-0.3-0.6-0.4-1c5,1.8,9.1,0.9,12.3-2.3
		c0.1,0.2,0.1,0.4,0.2,0.6c0.8,2,2.3,2.7,3.9,2.8c0.7,0,1.3,0,2.1-0.1c1.2-0.2,2.7-0.6,4.2-1.2s2.9-1.2,3.9-1.9
		c0.6-0.4,1.2-0.8,1.6-1.3c1.2-1.2,1.8-2.7,1.1-4.7c-0.8-2-2.3-2.7-3.9-2.8c-0.7,0-1.3,0-2.1,0.1c-0.7,0.1-1.5,0.3-2.3,0.6l-2.4-6.3
		c0.4-0.3,0.8-0.7,1.2-1.1c0.3-0.3,0.6-0.7,0.9-1c0.6-0.7,1-1.4,1.3-1.9l0,0c1-1.5,1.2-3.6,0.6-5.3l-3.6-9.3c-1-2.6-3.9-3.9-6.5-2.9
		L37,11.5c-2.6,1-3.9,3.9-2.9,6.5l3.6,9.3c0.6,1.5,2,2.9,3.5,3.4c-0.1,0.1-0.1,0.1-0.2,0.2c-0.3,0.4-0.7,0.7-1.1,1.2
		c-0.1,0.1-0.8,1-1,1.3c-0.8,0.9-1.4,1.5-2,2c-0.6,0.5-1.4,0.6-2.7,0.1c-0.9-0.4-2-1-3.3-2c0.3,0.2-2.6-2-3.3-2.4
		c-1.8-1.1-5.3-1.7-8.7-1.3c2.9-1.5,4.9-4.5,4.9-8c0-5-4-9-9-9s-9,4-9,9c0,5,4,9,9,9c0,0,0,0,0.1,0c-4.3,1.7-7.6,5.2-9.5,10.6
		c-3.5,10.2-1.5,16.4,5.3,20.4H3c-1.7,0-3,1.3-3,3v12c0,1.6,1.3,3,3,3h4c0,0,0,0,0,0v26.9c0,3.9,3.1,7.1,7,7.1h2c3.9,0,7-3.2,7-7.1
		V79.8h86v26.9c0,3.9,3.1,7.1,7,7.1h2c3.9,0,7-3.2,7-7.1V80v-0.2c0,0,0,0,0,0h2c1.6,0,3-1.3,3-3V65.7c0.3-0.3,0.6-0.6,0.7-1.1
		C132.8,55.7,133.7,50.8,133.5,45.7z M76.3,26.9c-0.5-0.3-0.9-0.9-1-1.5l-1-9.9c-0.1-0.6,0.3-1,0.9-1.1l8-0.8c0.5-0.1,1,0.3,1.1,0.9
		l1,9.9c0.1,0.6-0.2,1.3-0.7,1.7c0,0-2.6,2.3-3.9,2.5C79.4,28.7,76.3,26.9,76.3,26.9z M82.4,44.8c-2.7,0.3-5,0.1-5.1-0.5
		c-0.1-0.5,2.1-1.2,4.9-1.5l0,0c2.7-0.3,5-0.1,5.1,0.5C87.3,43.9,85.1,44.6,82.4,44.8z M84,64c2.2-1.3,7.6-2.2,14-2.2
		c7.2,0,13.3,1.2,14.7,2.8c0,0,0,0,0,0c0.2,0.2,0.3,0.5,0.3,0.7c0,1.9-6.7,3.5-15,3.5c-8.3,0-15-1.6-15-3.5C83,65.2,83,64.7,84,64z
		 M34,60.8c8.3,0,15,1.6,15,3.5s-6.7,3.5-15,3.5c-7.2,0-13.2-1.2-14.7-2.8c3,0.5,5.3-0.1,6.8-1.9c0.5-0.6,0.8-1.2,1-1.9
		C29,61,31.8,60.8,34,60.8z M52.5,40.8c2.6-1,4.8-1.4,5-0.9c0.2,0.5-1.7,1.7-4.3,2.7s-4.8,1.4-5,0.9S50,41.8,52.5,40.8z M37.8,16.5
		c-0.2-0.5,0.1-1.1,0.6-1.3l7.5-2.9c0.5-0.2,1.1,0.1,1.3,0.6l3.6,9.3c0.2,0.5,0.1,1.3-0.2,1.8c0,0-1.9,2.9-3.2,3.4
		c-1.2,0.5-4.6-0.4-4.6-0.4c-0.5-0.1-1.1-0.7-1.3-1.2L37.8,16.5z M15,26.8c-2.8,0-5-2.2-5-5s2.2-5,5-5s5,2.2,5,5S17.8,26.8,15,26.8z
		 M9.4,42.7c1.7-5.1,4.8-7.8,8.8-8.7c2.9-0.7,6.2-0.2,7.4,0.6c0.5,0.3,3.1,2.3,3,2.2c1.5,1.1,2.8,1.9,4.2,2.4c2.5,1,4.8,0.9,6.7-0.7
		c0.8-0.7,1.5-1.5,2.4-2.5c0.2-0.3,1-1.2,1.1-1.3c0.4-0.5,0.7-0.8,0.9-1.1c1.2-1.3,1.6-1.4,2.5-0.7c0.9,0.7,0.8,1.6-0.8,3.8
		c-0.5,0.6-1,1.3-1.7,2.1c-0.1,0.2-0.3,0.3-0.4,0.5c-0.2,0.3-0.3,0.4-0.4,0.5c-0.4,0.4-0.6,0.7-0.9,1c-3,3.6-6.9,4-13.5-0.4
		c-1.8-1.2-4,0.9-2.8,2.7c1,1.5,1.9,3.5,2.8,5.9c0.8,2.1,1.5,4.3,2.2,6.6c0.1,0.4,0.2,0.8,0.3,1.2C29.6,57,28,57.1,27,57.2
		c-0.1-0.3-0.2-0.5-0.3-0.8c-0.9-1.9-2.2-2.8-4.7-3.6c-0.2-0.1-1.8-0.6-2.3-0.7c-0.9-0.3-1.8-0.6-2.6-1c-2.3-1-2.5-1.9-1.5-6
		c0.1-0.4,0.1-0.6,0.2-0.9c0.2-1.1-0.4-2.1-1.5-2.4c-1.1-0.2-2.1,0.4-2.4,1.5c-0.1,0.2-0.1,0.5-0.2,0.9c-0.6,2.8-0.8,3.9-0.5,5.4
		c0.4,2.2,1.8,4,4.3,5.1c1,0.4,1.9,0.8,3,1.1c0.5,0.2,2.1,0.7,2.3,0.7c1.5,0.5,2,0.8,2.3,1.5c0.4,0.8,0.4,1.9-0.1,2.5
		c-0.6,0.7-2.3,0.9-5.3-0.1C8.5,57.3,5.9,53,9.4,42.7z M19,106.7c0,1.7-1.3,3.1-3,3.1h-2c-1.7,0-3-1.4-3-3.1V79.8l4,0c0,0,0,0,0,0h0
		v0l4,0V106.7z M121,80v26.7c0,1.7-1.3,3.1-3,3.1h-2c-1.7,0-3-1.4-3-3.1V79.8l4,0v0h0c0,0,0,0,0,0l4,0V80z M126,75.8H4v-10h11.2
		c1.6,4.9,10.9,6,18.8,6c13.5,0,17.8-3,18.8-6c0,0,0.1,0,0.1,0H79c0.2,2,1.4,3.4,3.2,4.4c1.1,0.6,2.5,1.1,4.2,1.5
		c3.1,0.7,7.2,1.1,11.5,1.1s8.4-0.4,11.5-1.1c1.7-0.4,3.1-0.9,4.2-1.5c1.8-1,3-2.4,3.2-4.4h9V75.8z M127.2,61.8c-0.1,0-0.2,0-0.2,0
		h-5c1.1-3.8,1.9-7.4,2.8-13.4c0.2-1.1-0.6-2.1-1.7-2.3c-1.1-0.2-2.1,0.6-2.3,1.7c-1,6.4-1.8,10-3,14h-2.3c-0.5-0.5-1.1-1-1.8-1.4
		c-1.1-0.6-2.5-1.1-4.2-1.5c-1.1-0.3-2.4-0.5-3.7-0.7c0-0.2,0.1-0.3,0.1-0.6c0.2-0.9,0.5-2,0.8-3.1c0.9-3.4,2.1-7,3.4-10.9
		c0.4-1.1-0.3-2.4-1.5-2.6c-0.2,0-8.7-1.3-12.5-2.1c-3.2-0.7-6-1.4-8.5-2.5c-3.1-1.4-4.2-2.7-3.8-3.8c0.6-1.6,2.2-1.6,7.1,0.3
		c0.1,0.1,0.3,0.1,0.5,0.2c2.8,1.1,3.9,1.4,5.3,1.7c0.3,0.1,0.7,0.1,1,0.2c1.8,0.3,3.5,0.4,6.7,0.6c0.5,0,2.7,0.1,3.2,0.1
		c1.4,0.1,2.7,0.1,4,0.2c3.4,0.2,7,0.5,11.1,0.8c4.6,0.4,6.6,3.4,6.8,9.1C129.7,50.1,129,54.4,127.2,61.8z"/>
	<polygon fill="#E36936" points="117,79.8 117,79.8 117,79.8 	"/>
	<polygon fill="#E36936" points="15,79.8 15,79.8 15,79.8 	"/>
</g>
</svg>
